<svg width="100" height="100" viewBox="0 0 100 100" fill="none" xmlns="http://www.w3.org/2000/svg">
<path d="M39.2708 68.75L68.8542 50L39.2708 31.1458V68.75ZM50 94.2708C43.8889 94.2708 38.1424 93.125 32.7604 90.8333C27.3785 88.5417 22.6736 85.3819 18.6458 81.3542C14.6181 77.3264 11.4583 72.6215 9.16667 67.2396C6.87501 61.8576 5.72917 56.1111 5.72917 50C5.72917 43.8194 6.87501 38.0382 9.16667 32.6562C11.4583 27.2743 14.6181 22.5868 18.6458 18.5938C22.6736 14.6007 27.3785 11.441 32.7604 9.11458C38.1424 6.78819 43.8889 5.625 50 5.625C56.1806 5.625 61.9618 6.78819 67.3438 9.11458C72.7257 11.441 77.4132 14.6007 81.4063 18.5938C85.3993 22.5868 88.559 27.2743 90.8854 32.6562C93.2118 38.0382 94.375 43.8194 94.375 50C94.375 56.1111 93.2118 61.8576 90.8854 67.2396C88.559 72.6215 85.3993 77.3264 81.4063 81.3542C77.4132 85.3819 72.7257 88.5417 67.3438 90.8333C61.9618 93.125 56.1806 94.2708 50 94.2708Z" fill="#CDA45E"/>
</svg>
